<mxfile host="app.diagrams.net" agent="Mozilla/5.0 (Windows NT 10.0; Win64; x64) AppleWebKit/537.36 (KHTML, like Gecko) Chrome/135.0.0.0 Safari/537.36" version="26.2.14">
  <diagram id="C5RBs43oDa-KdzZeNtuy" name="Page-1">
    <mxGraphModel dx="8601" dy="3740" grid="1" gridSize="10" guides="1" tooltips="1" connect="1" arrows="1" fold="1" page="1" pageScale="1" pageWidth="827" pageHeight="1169" math="0" shadow="0">
      <root>
        <mxCell id="WIyWlLk6GJQsqaUBKTNV-0" />
        <mxCell id="WIyWlLk6GJQsqaUBKTNV-1" parent="WIyWlLk6GJQsqaUBKTNV-0" />
        <mxCell id="HlbBvnIb4zkgzPctbdRk-106" style="edgeStyle=orthogonalEdgeStyle;rounded=0;orthogonalLoop=1;jettySize=auto;html=1;exitX=0.5;exitY=1;exitDx=0;exitDy=0;" edge="1" parent="WIyWlLk6GJQsqaUBKTNV-1" target="HlbBvnIb4zkgzPctbdRk-42">
          <mxGeometry relative="1" as="geometry">
            <mxPoint x="-325" y="1682" as="sourcePoint" />
            <Array as="points">
              <mxPoint x="-325" y="1702" />
              <mxPoint x="-325" y="1702" />
            </Array>
          </mxGeometry>
        </mxCell>
        <mxCell id="HlbBvnIb4zkgzPctbdRk-125" value="" style="edgeStyle=orthogonalEdgeStyle;rounded=0;orthogonalLoop=1;jettySize=auto;html=1;entryX=0;entryY=0;entryDx=195.57;entryDy=0;entryPerimeter=0;exitX=0.092;exitY=0.515;exitDx=0;exitDy=0;exitPerimeter=0;" edge="1" parent="WIyWlLk6GJQsqaUBKTNV-1" source="HlbBvnIb4zkgzPctbdRk-42" target="HlbBvnIb4zkgzPctbdRk-144">
          <mxGeometry relative="1" as="geometry">
            <mxPoint x="-368.02199698160075" y="1844.4949560318237" as="targetPoint" />
            <Array as="points">
              <mxPoint x="-398" y="1760" />
              <mxPoint x="-414" y="1760" />
            </Array>
          </mxGeometry>
        </mxCell>
        <mxCell id="HlbBvnIb4zkgzPctbdRk-126" value="" style="edgeStyle=orthogonalEdgeStyle;rounded=0;orthogonalLoop=1;jettySize=auto;html=1;" edge="1" parent="WIyWlLk6GJQsqaUBKTNV-1" source="HlbBvnIb4zkgzPctbdRk-42">
          <mxGeometry relative="1" as="geometry">
            <mxPoint x="-220" y="1800" as="targetPoint" />
            <Array as="points">
              <mxPoint x="-220" y="1792" />
            </Array>
          </mxGeometry>
        </mxCell>
        <mxCell id="HlbBvnIb4zkgzPctbdRk-42" value="" style="line;strokeWidth=4;html=1;perimeter=backbonePerimeter;points=[];outlineConnect=0;fillColor=none;" vertex="1" parent="WIyWlLk6GJQsqaUBKTNV-1">
          <mxGeometry x="-414" y="1640" width="170" height="190" as="geometry" />
        </mxCell>
        <mxCell id="HlbBvnIb4zkgzPctbdRk-139" value="" style="shape=sumEllipse;perimeter=ellipsePerimeter;whiteSpace=wrap;html=1;backgroundOutline=1;fillColor=none;" vertex="1" parent="WIyWlLk6GJQsqaUBKTNV-1">
          <mxGeometry x="-320" y="2245" width="50" height="50" as="geometry" />
        </mxCell>
        <mxCell id="HlbBvnIb4zkgzPctbdRk-140" value="" style="edgeStyle=orthogonalEdgeStyle;rounded=0;orthogonalLoop=1;jettySize=auto;html=1;" edge="1" parent="WIyWlLk6GJQsqaUBKTNV-1" target="HlbBvnIb4zkgzPctbdRk-139">
          <mxGeometry relative="1" as="geometry">
            <mxPoint x="-360" y="2270" as="sourcePoint" />
          </mxGeometry>
        </mxCell>
        <mxCell id="HlbBvnIb4zkgzPctbdRk-141" value="&lt;span style=&quot;font-size: 14px;&quot;&gt;INTERPRETATION&lt;/span&gt;&lt;div&gt;&lt;span style=&quot;font-size: 14px;&quot;&gt;MESSAGE&lt;/span&gt;&lt;/div&gt;" style="html=1;shadow=0;dashed=0;align=center;verticalAlign=middle;shape=mxgraph.arrows2.arrow;dy=0;dx=44.43;notch=0;fillColor=none;" vertex="1" parent="WIyWlLk6GJQsqaUBKTNV-1">
          <mxGeometry x="-600" y="2240" width="240" height="60" as="geometry" />
        </mxCell>
        <mxCell id="HlbBvnIb4zkgzPctbdRk-142" value="" style="shape=sumEllipse;perimeter=ellipsePerimeter;whiteSpace=wrap;html=1;backgroundOutline=1;fillColor=none;" vertex="1" parent="WIyWlLk6GJQsqaUBKTNV-1">
          <mxGeometry x="-330" y="1795" width="50" height="50" as="geometry" />
        </mxCell>
        <mxCell id="HlbBvnIb4zkgzPctbdRk-143" value="" style="edgeStyle=orthogonalEdgeStyle;rounded=0;orthogonalLoop=1;jettySize=auto;html=1;" edge="1" parent="WIyWlLk6GJQsqaUBKTNV-1" target="HlbBvnIb4zkgzPctbdRk-142">
          <mxGeometry relative="1" as="geometry">
            <mxPoint x="-370" y="1820" as="sourcePoint" />
          </mxGeometry>
        </mxCell>
        <mxCell id="HlbBvnIb4zkgzPctbdRk-144" value="&lt;span style=&quot;font-size: 14px;&quot;&gt;KEEP&lt;/span&gt;&lt;div&gt;&lt;span style=&quot;font-size: 14px;&quot;&gt;LISTENING&lt;/span&gt;&lt;/div&gt;" style="html=1;shadow=0;dashed=0;align=center;verticalAlign=middle;shape=mxgraph.arrows2.arrow;dy=0;dx=44.43;notch=0;fillColor=none;" vertex="1" parent="WIyWlLk6GJQsqaUBKTNV-1">
          <mxGeometry x="-610" y="1790" width="240" height="60" as="geometry" />
        </mxCell>
        <mxCell id="HlbBvnIb4zkgzPctbdRk-145" value="" style="shape=sumEllipse;perimeter=ellipsePerimeter;whiteSpace=wrap;html=1;backgroundOutline=1;fillColor=none;" vertex="1" parent="WIyWlLk6GJQsqaUBKTNV-1">
          <mxGeometry x="-50" y="2775" width="50" height="50" as="geometry" />
        </mxCell>
        <mxCell id="HlbBvnIb4zkgzPctbdRk-146" value="" style="edgeStyle=orthogonalEdgeStyle;rounded=0;orthogonalLoop=1;jettySize=auto;html=1;" edge="1" parent="WIyWlLk6GJQsqaUBKTNV-1" target="HlbBvnIb4zkgzPctbdRk-145">
          <mxGeometry relative="1" as="geometry">
            <mxPoint x="-90" y="2800" as="sourcePoint" />
          </mxGeometry>
        </mxCell>
        <mxCell id="HlbBvnIb4zkgzPctbdRk-147" value="&lt;span style=&quot;font-size: 14px;&quot;&gt;CHECK&lt;/span&gt;&lt;div&gt;&lt;span style=&quot;font-size: 14px;&quot;&gt;INGREDIENTS&lt;/span&gt;&lt;/div&gt;" style="html=1;shadow=0;dashed=0;align=center;verticalAlign=middle;shape=mxgraph.arrows2.arrow;dy=0;dx=44.43;notch=0;fillColor=none;" vertex="1" parent="WIyWlLk6GJQsqaUBKTNV-1">
          <mxGeometry x="-270" y="2770" width="180" height="60" as="geometry" />
        </mxCell>
        <mxCell id="HlbBvnIb4zkgzPctbdRk-148" value="" style="shape=sumEllipse;perimeter=ellipsePerimeter;whiteSpace=wrap;html=1;backgroundOutline=1;fillColor=none;" vertex="1" parent="WIyWlLk6GJQsqaUBKTNV-1">
          <mxGeometry x="-71.5" y="4006" width="50" height="50" as="geometry" />
        </mxCell>
        <mxCell id="HlbBvnIb4zkgzPctbdRk-149" value="" style="edgeStyle=orthogonalEdgeStyle;rounded=0;orthogonalLoop=1;jettySize=auto;html=1;" edge="1" parent="WIyWlLk6GJQsqaUBKTNV-1" target="HlbBvnIb4zkgzPctbdRk-148">
          <mxGeometry relative="1" as="geometry">
            <mxPoint x="-111.5" y="4031" as="sourcePoint" />
          </mxGeometry>
        </mxCell>
        <mxCell id="HlbBvnIb4zkgzPctbdRk-150" value="&lt;span style=&quot;font-size: 14px;&quot;&gt;NO PROPOSES&lt;/span&gt;&lt;div&gt;&lt;span style=&quot;font-size: 14px;&quot;&gt;FOUND MESSAGE&lt;/span&gt;&lt;/div&gt;" style="html=1;shadow=0;dashed=0;align=center;verticalAlign=middle;shape=mxgraph.arrows2.arrow;dy=0;dx=44.43;notch=0;fillColor=none;" vertex="1" parent="WIyWlLk6GJQsqaUBKTNV-1">
          <mxGeometry x="-351.5" y="4001" width="240" height="60" as="geometry" />
        </mxCell>
        <mxCell id="HlbBvnIb4zkgzPctbdRk-151" value="" style="shape=sumEllipse;perimeter=ellipsePerimeter;whiteSpace=wrap;html=1;backgroundOutline=1;fillColor=none;" vertex="1" parent="WIyWlLk6GJQsqaUBKTNV-1">
          <mxGeometry x="-388.5" y="3886" width="50" height="50" as="geometry" />
        </mxCell>
        <mxCell id="HlbBvnIb4zkgzPctbdRk-152" value="" style="edgeStyle=orthogonalEdgeStyle;rounded=0;orthogonalLoop=1;jettySize=auto;html=1;" edge="1" parent="WIyWlLk6GJQsqaUBKTNV-1" target="HlbBvnIb4zkgzPctbdRk-151">
          <mxGeometry relative="1" as="geometry">
            <mxPoint x="-428.5" y="3911" as="sourcePoint" />
          </mxGeometry>
        </mxCell>
        <mxCell id="HlbBvnIb4zkgzPctbdRk-153" value="&lt;span style=&quot;font-size: 14px;&quot;&gt;PROPOSES&lt;/span&gt;&lt;div&gt;&lt;span style=&quot;font-size: 14px;&quot;&gt;MESSAGE&lt;/span&gt;&lt;/div&gt;" style="html=1;shadow=0;dashed=0;align=center;verticalAlign=middle;shape=mxgraph.arrows2.arrow;dy=0;dx=44.43;notch=0;fillColor=none;" vertex="1" parent="WIyWlLk6GJQsqaUBKTNV-1">
          <mxGeometry x="-668.5" y="3881" width="240" height="60" as="geometry" />
        </mxCell>
        <mxCell id="HlbBvnIb4zkgzPctbdRk-154" value="" style="shape=sumEllipse;perimeter=ellipsePerimeter;whiteSpace=wrap;html=1;backgroundOutline=1;fillColor=none;" vertex="1" parent="WIyWlLk6GJQsqaUBKTNV-1">
          <mxGeometry x="-373.5" y="3536" width="50" height="50" as="geometry" />
        </mxCell>
        <mxCell id="HlbBvnIb4zkgzPctbdRk-155" value="" style="edgeStyle=orthogonalEdgeStyle;rounded=0;orthogonalLoop=1;jettySize=auto;html=1;" edge="1" parent="WIyWlLk6GJQsqaUBKTNV-1" target="HlbBvnIb4zkgzPctbdRk-154">
          <mxGeometry relative="1" as="geometry">
            <mxPoint x="-413.5" y="3561" as="sourcePoint" />
          </mxGeometry>
        </mxCell>
        <mxCell id="HlbBvnIb4zkgzPctbdRk-156" value="&lt;span style=&quot;font-size: 14px;&quot;&gt;WI-FI&amp;nbsp;&lt;/span&gt;&lt;span style=&quot;font-size: 14px; background-color: transparent; color: light-dark(rgb(0, 0, 0), rgb(255, 255, 255));&quot;&gt;CONNECTION&lt;/span&gt;&lt;div&gt;&lt;span style=&quot;font-size: 14px; background-color: transparent; color: light-dark(rgb(0, 0, 0), rgb(255, 255, 255));&quot;&gt;ERROR&lt;/span&gt;&lt;/div&gt;" style="html=1;shadow=0;dashed=0;align=center;verticalAlign=middle;shape=mxgraph.arrows2.arrow;dy=0;dx=44.43;notch=0;fillColor=none;" vertex="1" parent="WIyWlLk6GJQsqaUBKTNV-1">
          <mxGeometry x="-653.5" y="3531" width="240" height="60" as="geometry" />
        </mxCell>
        <mxCell id="HlbBvnIb4zkgzPctbdRk-157" value="" style="shape=sumEllipse;perimeter=ellipsePerimeter;whiteSpace=wrap;html=1;backgroundOutline=1;fillColor=none;" vertex="1" parent="WIyWlLk6GJQsqaUBKTNV-1">
          <mxGeometry x="31.5" y="3886" width="50" height="50" as="geometry" />
        </mxCell>
        <mxCell id="HlbBvnIb4zkgzPctbdRk-158" value="" style="edgeStyle=orthogonalEdgeStyle;rounded=0;orthogonalLoop=1;jettySize=auto;html=1;" edge="1" parent="WIyWlLk6GJQsqaUBKTNV-1" target="HlbBvnIb4zkgzPctbdRk-157">
          <mxGeometry relative="1" as="geometry">
            <mxPoint x="-8.5" y="3911" as="sourcePoint" />
          </mxGeometry>
        </mxCell>
        <mxCell id="HlbBvnIb4zkgzPctbdRk-159" value="&lt;span style=&quot;font-size: 14px;&quot;&gt;NO RECIPE&lt;/span&gt;&lt;div&gt;&lt;span style=&quot;font-size: 14px;&quot;&gt;FOUND MESSAGE&lt;/span&gt;&lt;/div&gt;" style="html=1;shadow=0;dashed=0;align=center;verticalAlign=middle;shape=mxgraph.arrows2.arrow;dy=0;dx=44.43;notch=0;fillColor=none;" vertex="1" parent="WIyWlLk6GJQsqaUBKTNV-1">
          <mxGeometry x="-248.5" y="3881" width="240" height="60" as="geometry" />
        </mxCell>
        <mxCell id="HlbBvnIb4zkgzPctbdRk-160" value="" style="shape=sumEllipse;perimeter=ellipsePerimeter;whiteSpace=wrap;html=1;backgroundOutline=1;fillColor=none;" vertex="1" parent="WIyWlLk6GJQsqaUBKTNV-1">
          <mxGeometry x="208.5" y="4086" width="50" height="50" as="geometry" />
        </mxCell>
        <mxCell id="HlbBvnIb4zkgzPctbdRk-161" value="" style="edgeStyle=orthogonalEdgeStyle;rounded=0;orthogonalLoop=1;jettySize=auto;html=1;" edge="1" parent="WIyWlLk6GJQsqaUBKTNV-1" target="HlbBvnIb4zkgzPctbdRk-160">
          <mxGeometry relative="1" as="geometry">
            <mxPoint x="168.5" y="4111" as="sourcePoint" />
          </mxGeometry>
        </mxCell>
        <mxCell id="HlbBvnIb4zkgzPctbdRk-162" value="&lt;font style=&quot;font-size: 16px;&quot;&gt;UPDATE&lt;/font&gt;&lt;font style=&quot;font-size: 14px;&quot;&gt;&amp;nbsp;&lt;/font&gt;&lt;span style=&quot;font-size: medium; background-color: transparent; color: light-dark(rgb(0, 0, 0), rgb(255, 255, 255));&quot;&gt;RECIPE&lt;/span&gt;" style="html=1;shadow=0;dashed=0;align=center;verticalAlign=middle;shape=mxgraph.arrows2.arrow;dy=0;dx=44.43;notch=0;fillColor=none;" vertex="1" parent="WIyWlLk6GJQsqaUBKTNV-1">
          <mxGeometry x="-71.5" y="4081" width="240" height="60" as="geometry" />
        </mxCell>
        <mxCell id="HlbBvnIb4zkgzPctbdRk-163" value="" style="shape=sumEllipse;perimeter=ellipsePerimeter;whiteSpace=wrap;html=1;backgroundOutline=1;fillColor=none;" vertex="1" parent="WIyWlLk6GJQsqaUBKTNV-1">
          <mxGeometry x="448.5" y="3996" width="50" height="50" as="geometry" />
        </mxCell>
        <mxCell id="HlbBvnIb4zkgzPctbdRk-164" value="" style="edgeStyle=orthogonalEdgeStyle;rounded=0;orthogonalLoop=1;jettySize=auto;html=1;" edge="1" parent="WIyWlLk6GJQsqaUBKTNV-1" target="HlbBvnIb4zkgzPctbdRk-163">
          <mxGeometry relative="1" as="geometry">
            <mxPoint x="408.5" y="4021" as="sourcePoint" />
          </mxGeometry>
        </mxCell>
        <mxCell id="HlbBvnIb4zkgzPctbdRk-165" value="&lt;span style=&quot;font-size: medium; background-color: transparent; color: light-dark(rgb(0, 0, 0), rgb(255, 255, 255));&quot;&gt;RECIPE MESSAGE&lt;/span&gt;" style="html=1;shadow=0;dashed=0;align=center;verticalAlign=middle;shape=mxgraph.arrows2.arrow;dy=0;dx=44.43;notch=0;fillColor=none;" vertex="1" parent="WIyWlLk6GJQsqaUBKTNV-1">
          <mxGeometry x="168.5" y="3991" width="240" height="60" as="geometry" />
        </mxCell>
        <mxCell id="HlbBvnIb4zkgzPctbdRk-166" value="" style="shape=sumEllipse;perimeter=ellipsePerimeter;whiteSpace=wrap;html=1;backgroundOutline=1;fillColor=none;" vertex="1" parent="WIyWlLk6GJQsqaUBKTNV-1">
          <mxGeometry x="30" y="3170" width="50" height="50" as="geometry" />
        </mxCell>
        <mxCell id="HlbBvnIb4zkgzPctbdRk-167" value="" style="edgeStyle=orthogonalEdgeStyle;rounded=0;orthogonalLoop=1;jettySize=auto;html=1;" edge="1" parent="WIyWlLk6GJQsqaUBKTNV-1" target="HlbBvnIb4zkgzPctbdRk-166">
          <mxGeometry relative="1" as="geometry">
            <mxPoint x="-10" y="3195" as="sourcePoint" />
          </mxGeometry>
        </mxCell>
        <mxCell id="HlbBvnIb4zkgzPctbdRk-168" value="&lt;span style=&quot;font-size: 14px;&quot;&gt;COMMAND RICIPE&lt;/span&gt;&lt;div&gt;&lt;span style=&quot;font-size: 14px;&quot;&gt;HISTORY&lt;/span&gt;&lt;/div&gt;" style="html=1;shadow=0;dashed=0;align=center;verticalAlign=middle;shape=mxgraph.arrows2.arrow;dy=0;dx=44.43;notch=0;fillColor=none;" vertex="1" parent="WIyWlLk6GJQsqaUBKTNV-1">
          <mxGeometry x="-250" y="3165" width="240" height="60" as="geometry" />
        </mxCell>
        <mxCell id="HlbBvnIb4zkgzPctbdRk-169" value="" style="shape=sumEllipse;perimeter=ellipsePerimeter;whiteSpace=wrap;html=1;backgroundOutline=1;fillColor=none;" vertex="1" parent="WIyWlLk6GJQsqaUBKTNV-1">
          <mxGeometry x="370" y="3170" width="50" height="50" as="geometry" />
        </mxCell>
        <mxCell id="HlbBvnIb4zkgzPctbdRk-170" value="" style="edgeStyle=orthogonalEdgeStyle;rounded=0;orthogonalLoop=1;jettySize=auto;html=1;" edge="1" parent="WIyWlLk6GJQsqaUBKTNV-1" target="HlbBvnIb4zkgzPctbdRk-169">
          <mxGeometry relative="1" as="geometry">
            <mxPoint x="330" y="3195" as="sourcePoint" />
          </mxGeometry>
        </mxCell>
        <mxCell id="HlbBvnIb4zkgzPctbdRk-171" value="&lt;span style=&quot;font-size: 14px;&quot;&gt;VALID COMMAND&lt;/span&gt;&lt;div&gt;&lt;span style=&quot;font-size: 14px;&quot;&gt;MESSAGE&lt;/span&gt;&lt;/div&gt;" style="html=1;shadow=0;dashed=0;align=center;verticalAlign=middle;shape=mxgraph.arrows2.arrow;dy=0;dx=44.43;notch=0;fillColor=none;" vertex="1" parent="WIyWlLk6GJQsqaUBKTNV-1">
          <mxGeometry x="90" y="3165" width="240" height="60" as="geometry" />
        </mxCell>
        <mxCell id="HlbBvnIb4zkgzPctbdRk-172" value="" style="shape=sumEllipse;perimeter=ellipsePerimeter;whiteSpace=wrap;html=1;backgroundOutline=1;fillColor=none;" vertex="1" parent="WIyWlLk6GJQsqaUBKTNV-1">
          <mxGeometry x="470" y="3097.5" width="50" height="50" as="geometry" />
        </mxCell>
        <mxCell id="HlbBvnIb4zkgzPctbdRk-173" value="" style="edgeStyle=orthogonalEdgeStyle;rounded=0;orthogonalLoop=1;jettySize=auto;html=1;" edge="1" parent="WIyWlLk6GJQsqaUBKTNV-1" target="HlbBvnIb4zkgzPctbdRk-172">
          <mxGeometry relative="1" as="geometry">
            <mxPoint x="430" y="3122.5" as="sourcePoint" />
          </mxGeometry>
        </mxCell>
        <mxCell id="HlbBvnIb4zkgzPctbdRk-174" value="&lt;span style=&quot;font-size: 14px;&quot;&gt;NO VALID&lt;/span&gt;&lt;div&gt;&lt;span style=&quot;font-size: 14px;&quot;&gt;COMMAND MESSAGE&lt;/span&gt;&lt;/div&gt;" style="html=1;shadow=0;dashed=0;align=center;verticalAlign=middle;shape=mxgraph.arrows2.arrow;dy=0;dx=44.43;notch=0;fillColor=none;" vertex="1" parent="WIyWlLk6GJQsqaUBKTNV-1">
          <mxGeometry x="190" y="3092.5" width="240" height="60" as="geometry" />
        </mxCell>
        <mxCell id="HlbBvnIb4zkgzPctbdRk-175" value="" style="shape=sumEllipse;perimeter=ellipsePerimeter;whiteSpace=wrap;html=1;backgroundOutline=1;fillColor=none;" vertex="1" parent="WIyWlLk6GJQsqaUBKTNV-1">
          <mxGeometry x="-140" y="1900" width="50" height="50" as="geometry" />
        </mxCell>
        <mxCell id="HlbBvnIb4zkgzPctbdRk-331" value="" style="edgeStyle=orthogonalEdgeStyle;rounded=0;orthogonalLoop=1;jettySize=auto;html=1;" edge="1" parent="WIyWlLk6GJQsqaUBKTNV-1" source="HlbBvnIb4zkgzPctbdRk-176" target="HlbBvnIb4zkgzPctbdRk-309">
          <mxGeometry relative="1" as="geometry" />
        </mxCell>
        <mxCell id="HlbBvnIb4zkgzPctbdRk-176" value="&lt;div&gt;&lt;span style=&quot;font-size: 14px; text-wrap-mode: nowrap;&quot;&gt;COMMAND&lt;/span&gt;&lt;/div&gt;" style="rounded=0;whiteSpace=wrap;html=1;fillColor=none;" vertex="1" parent="WIyWlLk6GJQsqaUBKTNV-1">
          <mxGeometry x="25" y="2820" width="240" height="70" as="geometry" />
        </mxCell>
        <mxCell id="HlbBvnIb4zkgzPctbdRk-177" value="" style="edgeStyle=orthogonalEdgeStyle;rounded=0;orthogonalLoop=1;jettySize=auto;html=1;fillColor=none;" edge="1" parent="WIyWlLk6GJQsqaUBKTNV-1" source="HlbBvnIb4zkgzPctbdRk-178">
          <mxGeometry relative="1" as="geometry">
            <mxPoint x="145" y="2820" as="targetPoint" />
          </mxGeometry>
        </mxCell>
        <mxCell id="HlbBvnIb4zkgzPctbdRk-178" value="&lt;span style=&quot;font-size: 14px; text-wrap-mode: nowrap;&quot;&gt;COMMAND&lt;/span&gt;&lt;div&gt;&lt;span style=&quot;font-size: 14px; text-wrap-mode: nowrap;&quot;&gt;VALIDATION&lt;/span&gt;&lt;/div&gt;" style="rounded=1;whiteSpace=wrap;html=1;fillColor=none;" vertex="1" parent="WIyWlLk6GJQsqaUBKTNV-1">
          <mxGeometry x="30" y="2710" width="230" height="60" as="geometry" />
        </mxCell>
        <mxCell id="HlbBvnIb4zkgzPctbdRk-179" value="&lt;div&gt;&lt;span style=&quot;font-size: 14px; text-wrap-mode: nowrap;&quot;&gt;SENTENCE&lt;/span&gt;&lt;/div&gt;" style="rounded=0;whiteSpace=wrap;html=1;fillColor=none;" vertex="1" parent="WIyWlLk6GJQsqaUBKTNV-1">
          <mxGeometry x="-280" y="2410" width="240" height="70" as="geometry" />
        </mxCell>
        <mxCell id="HlbBvnIb4zkgzPctbdRk-180" value="" style="edgeStyle=orthogonalEdgeStyle;rounded=0;orthogonalLoop=1;jettySize=auto;html=1;fillColor=none;" edge="1" parent="WIyWlLk6GJQsqaUBKTNV-1" source="HlbBvnIb4zkgzPctbdRk-181">
          <mxGeometry relative="1" as="geometry">
            <mxPoint x="-160" y="2410" as="targetPoint" />
          </mxGeometry>
        </mxCell>
        <mxCell id="HlbBvnIb4zkgzPctbdRk-181" value="&lt;span style=&quot;font-size: 14px; text-wrap-mode: nowrap;&quot;&gt;EVALUATES&lt;/span&gt;" style="rounded=1;whiteSpace=wrap;html=1;fillColor=none;" vertex="1" parent="WIyWlLk6GJQsqaUBKTNV-1">
          <mxGeometry x="-275" y="2300" width="230" height="60" as="geometry" />
        </mxCell>
        <mxCell id="HlbBvnIb4zkgzPctbdRk-256" value="" style="edgeStyle=orthogonalEdgeStyle;rounded=0;orthogonalLoop=1;jettySize=auto;html=1;exitX=0.5;exitY=1;exitDx=0;exitDy=0;" edge="1" parent="WIyWlLk6GJQsqaUBKTNV-1" source="HlbBvnIb4zkgzPctbdRk-182" target="HlbBvnIb4zkgzPctbdRk-248">
          <mxGeometry relative="1" as="geometry" />
        </mxCell>
        <mxCell id="HlbBvnIb4zkgzPctbdRk-182" value="&lt;div&gt;&lt;span style=&quot;font-size: 14px; text-wrap-mode: nowrap;&quot;&gt;MESSAGE&lt;/span&gt;&lt;/div&gt;" style="rounded=0;whiteSpace=wrap;html=1;fillColor=none;" vertex="1" parent="WIyWlLk6GJQsqaUBKTNV-1">
          <mxGeometry x="-425" y="2010" width="240" height="60" as="geometry" />
        </mxCell>
        <mxCell id="HlbBvnIb4zkgzPctbdRk-183" value="" style="edgeStyle=orthogonalEdgeStyle;rounded=0;orthogonalLoop=1;jettySize=auto;html=1;fillColor=none;" edge="1" parent="WIyWlLk6GJQsqaUBKTNV-1" source="HlbBvnIb4zkgzPctbdRk-184">
          <mxGeometry relative="1" as="geometry">
            <mxPoint x="-305" y="2010" as="targetPoint" />
          </mxGeometry>
        </mxCell>
        <mxCell id="HlbBvnIb4zkgzPctbdRk-184" value="&lt;span style=&quot;font-size: 14px; text-wrap-mode: nowrap;&quot;&gt;INTERPRETER&lt;/span&gt;" style="rounded=1;whiteSpace=wrap;html=1;fillColor=none;" vertex="1" parent="WIyWlLk6GJQsqaUBKTNV-1">
          <mxGeometry x="-420" y="1900" width="230" height="60" as="geometry" />
        </mxCell>
        <mxCell id="HlbBvnIb4zkgzPctbdRk-185" value="&lt;div&gt;&lt;span style=&quot;font-size: 14px; text-wrap-mode: nowrap;&quot;&gt;AUDIO TRACK&lt;/span&gt;&lt;/div&gt;" style="rounded=0;whiteSpace=wrap;html=1;fillColor=none;" vertex="1" parent="WIyWlLk6GJQsqaUBKTNV-1">
          <mxGeometry x="-450" y="1620" width="240" height="60" as="geometry" />
        </mxCell>
        <mxCell id="HlbBvnIb4zkgzPctbdRk-186" value="" style="edgeStyle=orthogonalEdgeStyle;rounded=0;orthogonalLoop=1;jettySize=auto;html=1;fillColor=none;" edge="1" parent="WIyWlLk6GJQsqaUBKTNV-1" source="HlbBvnIb4zkgzPctbdRk-187">
          <mxGeometry relative="1" as="geometry">
            <mxPoint x="-330" y="1620" as="targetPoint" />
          </mxGeometry>
        </mxCell>
        <mxCell id="HlbBvnIb4zkgzPctbdRk-187" value="&lt;span style=&quot;font-size: 14px; text-wrap-mode: nowrap;&quot;&gt;MICROPHONES&lt;/span&gt;" style="rounded=1;whiteSpace=wrap;html=1;fillColor=none;" vertex="1" parent="WIyWlLk6GJQsqaUBKTNV-1">
          <mxGeometry x="-445" y="1510" width="230" height="60" as="geometry" />
        </mxCell>
        <mxCell id="HlbBvnIb4zkgzPctbdRk-188" value="" style="edgeStyle=orthogonalEdgeStyle;rounded=0;orthogonalLoop=1;jettySize=auto;html=1;fillColor=none;entryX=0.5;entryY=0;entryDx=0;entryDy=0;exitX=0.5;exitY=1;exitDx=0;exitDy=0;" edge="1" parent="WIyWlLk6GJQsqaUBKTNV-1" source="HlbBvnIb4zkgzPctbdRk-189" target="HlbBvnIb4zkgzPctbdRk-295">
          <mxGeometry relative="1" as="geometry">
            <mxPoint x="-341" y="3405" as="targetPoint" />
            <mxPoint x="-341" y="3345" as="sourcePoint" />
          </mxGeometry>
        </mxCell>
        <mxCell id="HlbBvnIb4zkgzPctbdRk-189" value="&lt;span style=&quot;font-size: 14px; text-wrap-mode: nowrap;&quot;&gt;WI-FI&lt;/span&gt;&lt;div&gt;&lt;span style=&quot;font-size: 14px; text-wrap-mode: nowrap;&quot;&gt;CONNECTION&lt;/span&gt;&lt;/div&gt;" style="rounded=1;whiteSpace=wrap;html=1;fillColor=none;" vertex="1" parent="WIyWlLk6GJQsqaUBKTNV-1">
          <mxGeometry x="-456" y="3295" width="230" height="60" as="geometry" />
        </mxCell>
        <mxCell id="HlbBvnIb4zkgzPctbdRk-190" value="" style="edgeStyle=orthogonalEdgeStyle;rounded=0;orthogonalLoop=1;jettySize=auto;html=1;fillColor=none;entryX=0.5;entryY=0;entryDx=0;entryDy=0;exitX=0.5;exitY=1;exitDx=0;exitDy=0;" edge="1" parent="WIyWlLk6GJQsqaUBKTNV-1" source="HlbBvnIb4zkgzPctbdRk-191" target="HlbBvnIb4zkgzPctbdRk-288">
          <mxGeometry relative="1" as="geometry">
            <mxPoint x="-363.5" y="3756" as="targetPoint" />
            <mxPoint x="-368.5" y="3711" as="sourcePoint" />
          </mxGeometry>
        </mxCell>
        <mxCell id="HlbBvnIb4zkgzPctbdRk-191" value="&lt;span style=&quot;font-size: 14px; text-wrap-mode: nowrap;&quot;&gt;SEARCH&lt;/span&gt;&lt;div&gt;&lt;span style=&quot;font-size: 14px; text-wrap-mode: nowrap;&quot;&gt;PROPOSES&lt;/span&gt;&lt;/div&gt;" style="rounded=1;whiteSpace=wrap;html=1;fillColor=none;" vertex="1" parent="WIyWlLk6GJQsqaUBKTNV-1">
          <mxGeometry x="-478.5" y="3646" width="230" height="60" as="geometry" />
        </mxCell>
        <mxCell id="HlbBvnIb4zkgzPctbdRk-192" value="" style="edgeStyle=orthogonalEdgeStyle;rounded=0;orthogonalLoop=1;jettySize=auto;html=1;fillColor=none;entryX=0.464;entryY=0;entryDx=0;entryDy=0;entryPerimeter=0;exitX=0.5;exitY=1;exitDx=0;exitDy=0;" edge="1" parent="WIyWlLk6GJQsqaUBKTNV-1" source="HlbBvnIb4zkgzPctbdRk-193" target="HlbBvnIb4zkgzPctbdRk-323">
          <mxGeometry relative="1" as="geometry">
            <mxPoint x="-3.5" y="3756" as="targetPoint" />
          </mxGeometry>
        </mxCell>
        <mxCell id="HlbBvnIb4zkgzPctbdRk-193" value="&lt;span style=&quot;font-size: 14px; text-wrap-mode: nowrap;&quot;&gt;SEARCH&lt;/span&gt;&lt;div&gt;&lt;span style=&quot;font-size: 14px; text-wrap-mode: nowrap;&quot;&gt;RECIPE&lt;/span&gt;&lt;/div&gt;" style="rounded=1;whiteSpace=wrap;html=1;fillColor=none;" vertex="1" parent="WIyWlLk6GJQsqaUBKTNV-1">
          <mxGeometry x="-118.5" y="3646" width="230" height="60" as="geometry" />
        </mxCell>
        <mxCell id="HlbBvnIb4zkgzPctbdRk-226" style="edgeStyle=orthogonalEdgeStyle;rounded=0;orthogonalLoop=1;jettySize=auto;html=1;exitX=0.75;exitY=0.943;exitDx=0;exitDy=0;exitPerimeter=0;entryX=0;entryY=1;entryDx=0;entryDy=0;" edge="1" parent="WIyWlLk6GJQsqaUBKTNV-1" source="HlbBvnIb4zkgzPctbdRk-194" target="HlbBvnIb4zkgzPctbdRk-224">
          <mxGeometry relative="1" as="geometry" />
        </mxCell>
        <mxCell id="HlbBvnIb4zkgzPctbdRk-194" value="&lt;span style=&quot;font-size: 14px;&quot;&gt;KEEP&lt;/span&gt;&lt;div&gt;&lt;span style=&quot;font-size: 14px;&quot;&gt;LISTENING&lt;/span&gt;&lt;/div&gt;" style="html=1;shadow=0;dashed=0;align=center;verticalAlign=middle;shape=mxgraph.arrows2.arrow;dy=0;dx=0;notch=30.71;fillColor=none;" vertex="1" parent="WIyWlLk6GJQsqaUBKTNV-1">
          <mxGeometry x="-611" y="1317.5" width="260" height="60" as="geometry" />
        </mxCell>
        <mxCell id="HlbBvnIb4zkgzPctbdRk-232" style="edgeStyle=orthogonalEdgeStyle;rounded=0;orthogonalLoop=1;jettySize=auto;html=1;exitX=0.75;exitY=1;exitDx=0;exitDy=0;entryX=0;entryY=1;entryDx=0;entryDy=0;" edge="1" parent="WIyWlLk6GJQsqaUBKTNV-1" source="HlbBvnIb4zkgzPctbdRk-195" target="HlbBvnIb4zkgzPctbdRk-231">
          <mxGeometry relative="1" as="geometry">
            <Array as="points">
              <mxPoint x="-461" y="3095" />
              <mxPoint x="-359" y="3095" />
            </Array>
          </mxGeometry>
        </mxCell>
        <mxCell id="HlbBvnIb4zkgzPctbdRk-195" value="&lt;div&gt;&lt;span style=&quot;font-size: 14px; text-wrap-mode: nowrap;&quot;&gt;INGREDIENTS&lt;/span&gt;&lt;/div&gt;&lt;div&gt;&lt;span style=&quot;font-size: 14px; text-wrap-mode: nowrap;&quot;&gt;LIST&lt;/span&gt;&lt;/div&gt;" style="rounded=0;whiteSpace=wrap;html=1;fillColor=none;" vertex="1" parent="WIyWlLk6GJQsqaUBKTNV-1">
          <mxGeometry x="-641" y="3005" width="240" height="60" as="geometry" />
        </mxCell>
        <mxCell id="HlbBvnIb4zkgzPctbdRk-233" style="edgeStyle=orthogonalEdgeStyle;rounded=0;orthogonalLoop=1;jettySize=auto;html=1;exitX=0.25;exitY=1;exitDx=0;exitDy=0;entryX=0;entryY=0;entryDx=0;entryDy=0;" edge="1" parent="WIyWlLk6GJQsqaUBKTNV-1" source="HlbBvnIb4zkgzPctbdRk-196" target="HlbBvnIb4zkgzPctbdRk-231">
          <mxGeometry relative="1" as="geometry" />
        </mxCell>
        <mxCell id="HlbBvnIb4zkgzPctbdRk-196" value="&lt;div&gt;&lt;span style=&quot;font-size: 14px; text-wrap-mode: nowrap;&quot;&gt;RECIPE&lt;/span&gt;&lt;/div&gt;&lt;div&gt;&lt;span style=&quot;font-size: 14px; text-wrap-mode: nowrap;&quot;&gt;ASKED&lt;/span&gt;&lt;/div&gt;" style="rounded=0;whiteSpace=wrap;html=1;fillColor=none;" vertex="1" parent="WIyWlLk6GJQsqaUBKTNV-1">
          <mxGeometry x="-344" y="3005" width="240" height="60" as="geometry" />
        </mxCell>
        <mxCell id="HlbBvnIb4zkgzPctbdRk-198" value="" style="edgeStyle=orthogonalEdgeStyle;rounded=0;orthogonalLoop=1;jettySize=auto;html=1;entryX=0.758;entryY=-0.039;entryDx=0;entryDy=0;entryPerimeter=0;" edge="1" parent="WIyWlLk6GJQsqaUBKTNV-1" source="HlbBvnIb4zkgzPctbdRk-200" target="HlbBvnIb4zkgzPctbdRk-168">
          <mxGeometry relative="1" as="geometry">
            <mxPoint x="-33.02199698160075" y="3202.4949560318237" as="targetPoint" />
            <Array as="points">
              <mxPoint x="-50" y="3135" />
              <mxPoint x="-50" y="3135" />
            </Array>
          </mxGeometry>
        </mxCell>
        <mxCell id="HlbBvnIb4zkgzPctbdRk-199" value="" style="edgeStyle=orthogonalEdgeStyle;rounded=0;orthogonalLoop=1;jettySize=auto;html=1;entryX=0.167;entryY=0;entryDx=0;entryDy=0;entryPerimeter=0;" edge="1" parent="WIyWlLk6GJQsqaUBKTNV-1" target="HlbBvnIb4zkgzPctbdRk-171">
          <mxGeometry relative="1" as="geometry">
            <mxPoint x="75" y="3213" as="targetPoint" />
            <Array as="points">
              <mxPoint x="130" y="3150" />
            </Array>
            <mxPoint x="70" y="3115" as="sourcePoint" />
          </mxGeometry>
        </mxCell>
        <mxCell id="HlbBvnIb4zkgzPctbdRk-200" value="" style="line;strokeWidth=4;html=1;perimeter=backbonePerimeter;points=[];outlineConnect=0;fillColor=none;" vertex="1" parent="WIyWlLk6GJQsqaUBKTNV-1">
          <mxGeometry x="-75" y="3010" width="170" height="190" as="geometry" />
        </mxCell>
        <mxCell id="HlbBvnIb4zkgzPctbdRk-205" value="" style="edgeStyle=orthogonalEdgeStyle;rounded=0;orthogonalLoop=1;jettySize=auto;html=1;entryX=0;entryY=0;entryDx=97.785;entryDy=0;entryPerimeter=0;" edge="1" parent="WIyWlLk6GJQsqaUBKTNV-1" source="HlbBvnIb4zkgzPctbdRk-207" target="HlbBvnIb4zkgzPctbdRk-165">
          <mxGeometry relative="1" as="geometry">
            <mxPoint x="356.5" y="4006" as="targetPoint" />
            <Array as="points">
              <mxPoint x="331.5" y="3921" />
              <mxPoint x="331.5" y="3921" />
            </Array>
          </mxGeometry>
        </mxCell>
        <mxCell id="HlbBvnIb4zkgzPctbdRk-206" value="" style="edgeStyle=orthogonalEdgeStyle;rounded=0;orthogonalLoop=1;jettySize=auto;html=1;entryX=0;entryY=0;entryDx=195.57;entryDy=0;entryPerimeter=0;" edge="1" parent="WIyWlLk6GJQsqaUBKTNV-1" source="HlbBvnIb4zkgzPctbdRk-207" target="HlbBvnIb4zkgzPctbdRk-162">
          <mxGeometry relative="1" as="geometry">
            <mxPoint x="157.5" y="4005" as="targetPoint" />
            <Array as="points">
              <mxPoint x="141.5" y="3901" />
              <mxPoint x="141.5" y="3901" />
            </Array>
          </mxGeometry>
        </mxCell>
        <mxCell id="HlbBvnIb4zkgzPctbdRk-207" value="" style="line;strokeWidth=4;html=1;perimeter=backbonePerimeter;points=[];outlineConnect=0;fillColor=none;" vertex="1" parent="WIyWlLk6GJQsqaUBKTNV-1">
          <mxGeometry x="81.5" y="3786" width="250" height="190" as="geometry" />
        </mxCell>
        <mxCell id="HlbBvnIb4zkgzPctbdRk-225" style="edgeStyle=orthogonalEdgeStyle;rounded=0;orthogonalLoop=1;jettySize=auto;html=1;exitX=0;exitY=1;exitDx=0;exitDy=0;entryX=0;entryY=0;entryDx=0;entryDy=0;" edge="1" parent="WIyWlLk6GJQsqaUBKTNV-1" source="HlbBvnIb4zkgzPctbdRk-209" target="HlbBvnIb4zkgzPctbdRk-224">
          <mxGeometry relative="1" as="geometry">
            <Array as="points">
              <mxPoint x="-291" y="1380.5" />
              <mxPoint x="-291" y="1425.5" />
            </Array>
          </mxGeometry>
        </mxCell>
        <mxCell id="HlbBvnIb4zkgzPctbdRk-209" value="" style="ellipse;whiteSpace=wrap;html=1;aspect=fixed;" vertex="1" parent="WIyWlLk6GJQsqaUBKTNV-1">
          <mxGeometry x="-266" y="1337.5" width="50" height="50" as="geometry" />
        </mxCell>
        <mxCell id="HlbBvnIb4zkgzPctbdRk-287" style="edgeStyle=orthogonalEdgeStyle;rounded=0;orthogonalLoop=1;jettySize=auto;html=1;exitX=0.76;exitY=1.014;exitDx=0;exitDy=0;exitPerimeter=0;entryX=0;entryY=1;entryDx=0;entryDy=0;" edge="1" parent="WIyWlLk6GJQsqaUBKTNV-1" source="HlbBvnIb4zkgzPctbdRk-210" target="HlbBvnIb4zkgzPctbdRk-229">
          <mxGeometry relative="1" as="geometry">
            <Array as="points">
              <mxPoint x="-642" y="2910" />
              <mxPoint x="-537" y="2910" />
            </Array>
          </mxGeometry>
        </mxCell>
        <mxCell id="HlbBvnIb4zkgzPctbdRk-210" value="&lt;span style=&quot;font-size: 14px;&quot;&gt;INGREDIENTS&lt;/span&gt;&lt;div&gt;&lt;span style=&quot;font-size: 14px;&quot;&gt;SEEN&lt;/span&gt;&lt;/div&gt;" style="html=1;shadow=0;dashed=0;align=center;verticalAlign=middle;shape=mxgraph.arrows2.arrow;dy=0;dx=0;notch=30.71;fillColor=none;" vertex="1" parent="WIyWlLk6GJQsqaUBKTNV-1">
          <mxGeometry x="-840" y="2820" width="260" height="60" as="geometry" />
        </mxCell>
        <mxCell id="HlbBvnIb4zkgzPctbdRk-212" value="" style="edgeStyle=orthogonalEdgeStyle;rounded=0;orthogonalLoop=1;jettySize=auto;html=1;" edge="1" parent="WIyWlLk6GJQsqaUBKTNV-1" source="HlbBvnIb4zkgzPctbdRk-211">
          <mxGeometry relative="1" as="geometry">
            <mxPoint x="-123" y="2243" as="targetPoint" />
          </mxGeometry>
        </mxCell>
        <mxCell id="HlbBvnIb4zkgzPctbdRk-211" value="&lt;font style=&quot;font-size: 14px;&quot;&gt;A&lt;/font&gt;" style="ellipse;whiteSpace=wrap;html=1;aspect=fixed;fillColor=none;" vertex="1" parent="WIyWlLk6GJQsqaUBKTNV-1">
          <mxGeometry x="-150" y="2133" width="55" height="55" as="geometry" />
        </mxCell>
        <mxCell id="HlbBvnIb4zkgzPctbdRk-213" value="" style="edgeStyle=orthogonalEdgeStyle;rounded=0;orthogonalLoop=1;jettySize=auto;html=1;" edge="1" parent="WIyWlLk6GJQsqaUBKTNV-1" source="HlbBvnIb4zkgzPctbdRk-214">
          <mxGeometry relative="1" as="geometry">
            <mxPoint x="87" y="2650" as="targetPoint" />
          </mxGeometry>
        </mxCell>
        <mxCell id="HlbBvnIb4zkgzPctbdRk-214" value="&lt;font style=&quot;font-size: 14px;&quot;&gt;B&lt;/font&gt;" style="ellipse;whiteSpace=wrap;html=1;aspect=fixed;fillColor=none;" vertex="1" parent="WIyWlLk6GJQsqaUBKTNV-1">
          <mxGeometry x="60" y="2540" width="55" height="55" as="geometry" />
        </mxCell>
        <mxCell id="HlbBvnIb4zkgzPctbdRk-215" value="" style="edgeStyle=orthogonalEdgeStyle;rounded=0;orthogonalLoop=1;jettySize=auto;html=1;" edge="1" parent="WIyWlLk6GJQsqaUBKTNV-1" source="HlbBvnIb4zkgzPctbdRk-216">
          <mxGeometry relative="1" as="geometry">
            <mxPoint x="177" y="2650" as="targetPoint" />
          </mxGeometry>
        </mxCell>
        <mxCell id="HlbBvnIb4zkgzPctbdRk-216" value="&lt;font style=&quot;font-size: 14px;&quot;&gt;C&lt;/font&gt;" style="ellipse;whiteSpace=wrap;html=1;aspect=fixed;fillColor=none;" vertex="1" parent="WIyWlLk6GJQsqaUBKTNV-1">
          <mxGeometry x="150" y="2540" width="55" height="55" as="geometry" />
        </mxCell>
        <mxCell id="HlbBvnIb4zkgzPctbdRk-217" value="" style="edgeStyle=orthogonalEdgeStyle;rounded=0;orthogonalLoop=1;jettySize=auto;html=1;" edge="1" parent="WIyWlLk6GJQsqaUBKTNV-1" source="HlbBvnIb4zkgzPctbdRk-218">
          <mxGeometry relative="1" as="geometry">
            <mxPoint x="257" y="2650" as="targetPoint" />
          </mxGeometry>
        </mxCell>
        <mxCell id="HlbBvnIb4zkgzPctbdRk-218" value="&lt;font style=&quot;font-size: 14px;&quot;&gt;D&lt;/font&gt;" style="ellipse;whiteSpace=wrap;html=1;aspect=fixed;fillColor=none;" vertex="1" parent="WIyWlLk6GJQsqaUBKTNV-1">
          <mxGeometry x="230" y="2540" width="55" height="55" as="geometry" />
        </mxCell>
        <mxCell id="HlbBvnIb4zkgzPctbdRk-222" value="" style="edgeStyle=orthogonalEdgeStyle;rounded=0;orthogonalLoop=1;jettySize=auto;html=1;" edge="1" parent="WIyWlLk6GJQsqaUBKTNV-1" source="HlbBvnIb4zkgzPctbdRk-219" target="HlbBvnIb4zkgzPctbdRk-181">
          <mxGeometry relative="1" as="geometry">
            <Array as="points">
              <mxPoint x="-160" y="2300" />
              <mxPoint x="-160" y="2300" />
            </Array>
          </mxGeometry>
        </mxCell>
        <mxCell id="HlbBvnIb4zkgzPctbdRk-219" value="" style="line;strokeWidth=4;html=1;perimeter=backbonePerimeter;points=[];outlineConnect=0;fillColor=none;" vertex="1" parent="WIyWlLk6GJQsqaUBKTNV-1">
          <mxGeometry x="-250" y="2148" width="170" height="190" as="geometry" />
        </mxCell>
        <mxCell id="HlbBvnIb4zkgzPctbdRk-223" value="" style="edgeStyle=orthogonalEdgeStyle;rounded=0;orthogonalLoop=1;jettySize=auto;html=1;entryX=0.5;entryY=0;entryDx=0;entryDy=0;" edge="1" parent="WIyWlLk6GJQsqaUBKTNV-1" source="HlbBvnIb4zkgzPctbdRk-220" target="HlbBvnIb4zkgzPctbdRk-178">
          <mxGeometry relative="1" as="geometry">
            <Array as="points">
              <mxPoint x="145" y="2680" />
              <mxPoint x="145" y="2680" />
            </Array>
          </mxGeometry>
        </mxCell>
        <mxCell id="HlbBvnIb4zkgzPctbdRk-220" value="" style="line;strokeWidth=4;html=1;perimeter=backbonePerimeter;points=[];outlineConnect=0;fillColor=none;" vertex="1" parent="WIyWlLk6GJQsqaUBKTNV-1">
          <mxGeometry x="10" y="2560" width="270" height="190" as="geometry" />
        </mxCell>
        <mxCell id="HlbBvnIb4zkgzPctbdRk-227" value="" style="edgeStyle=orthogonalEdgeStyle;rounded=0;orthogonalLoop=1;jettySize=auto;html=1;" edge="1" parent="WIyWlLk6GJQsqaUBKTNV-1" source="HlbBvnIb4zkgzPctbdRk-224">
          <mxGeometry relative="1" as="geometry">
            <mxPoint x="-326" y="1510" as="targetPoint" />
          </mxGeometry>
        </mxCell>
        <mxCell id="HlbBvnIb4zkgzPctbdRk-224" value="" style="rhombus;whiteSpace=wrap;html=1;fillColor=none;direction=south;" vertex="1" parent="WIyWlLk6GJQsqaUBKTNV-1">
          <mxGeometry x="-351" y="1412.5" width="50" height="50" as="geometry" />
        </mxCell>
        <mxCell id="HlbBvnIb4zkgzPctbdRk-228" value="" style="edgeStyle=orthogonalEdgeStyle;rounded=0;orthogonalLoop=1;jettySize=auto;html=1;entryX=0.48;entryY=0.005;entryDx=0;entryDy=0;exitX=1;exitY=0.5;exitDx=0;exitDy=0;entryPerimeter=0;" edge="1" parent="WIyWlLk6GJQsqaUBKTNV-1" source="HlbBvnIb4zkgzPctbdRk-229" target="HlbBvnIb4zkgzPctbdRk-195">
          <mxGeometry relative="1" as="geometry">
            <mxPoint x="-525" y="2977.5" as="targetPoint" />
            <mxPoint x="-521" y="2980" as="sourcePoint" />
          </mxGeometry>
        </mxCell>
        <mxCell id="HlbBvnIb4zkgzPctbdRk-229" value="" style="rhombus;whiteSpace=wrap;html=1;fillColor=none;direction=south;" vertex="1" parent="WIyWlLk6GJQsqaUBKTNV-1">
          <mxGeometry x="-550" y="2910" width="50" height="50" as="geometry" />
        </mxCell>
        <mxCell id="HlbBvnIb4zkgzPctbdRk-230" value="" style="edgeStyle=orthogonalEdgeStyle;rounded=0;orthogonalLoop=1;jettySize=auto;html=1;" edge="1" parent="WIyWlLk6GJQsqaUBKTNV-1" source="HlbBvnIb4zkgzPctbdRk-231">
          <mxGeometry relative="1" as="geometry">
            <mxPoint x="-346" y="3295" as="targetPoint" />
          </mxGeometry>
        </mxCell>
        <mxCell id="HlbBvnIb4zkgzPctbdRk-231" value="" style="rhombus;whiteSpace=wrap;html=1;fillColor=none;direction=south;" vertex="1" parent="WIyWlLk6GJQsqaUBKTNV-1">
          <mxGeometry x="-371" y="3102.5" width="50" height="50" as="geometry" />
        </mxCell>
        <mxCell id="HlbBvnIb4zkgzPctbdRk-235" value="" style="rhombus;whiteSpace=wrap;html=1;fillColor=none;" vertex="1" parent="WIyWlLk6GJQsqaUBKTNV-1">
          <mxGeometry x="-245" y="1790" width="70" height="60" as="geometry" />
        </mxCell>
        <mxCell id="HlbBvnIb4zkgzPctbdRk-238" value="" style="edgeStyle=orthogonalEdgeStyle;rounded=0;orthogonalLoop=1;jettySize=auto;html=1;entryX=1;entryY=0;entryDx=0;entryDy=0;endArrow=oval;endFill=1;fillColor=none;" edge="1" parent="WIyWlLk6GJQsqaUBKTNV-1" source="HlbBvnIb4zkgzPctbdRk-239" target="HlbBvnIb4zkgzPctbdRk-235">
          <mxGeometry relative="1" as="geometry" />
        </mxCell>
        <mxCell id="HlbBvnIb4zkgzPctbdRk-239" value="&lt;span style=&quot;text-wrap-mode: nowrap; font-size: 14px;&quot;&gt;&amp;lt;&amp;lt;DECISION INPUT&amp;gt;&amp;gt;&lt;/span&gt;&lt;br&gt;&lt;div style=&quot;text-wrap-mode: nowrap;&quot;&gt;&lt;font size=&quot;3&quot;&gt;isInteraction(AudioTrack)&lt;/font&gt;&lt;/div&gt;" style="shape=note;whiteSpace=wrap;html=1;backgroundOutline=1;darkOpacity=0.05;fillColor=none;" vertex="1" parent="WIyWlLk6GJQsqaUBKTNV-1">
          <mxGeometry x="-160" y="1725" width="330" height="70" as="geometry" />
        </mxCell>
        <mxCell id="HlbBvnIb4zkgzPctbdRk-240" value="" style="endArrow=classic;html=1;rounded=0;exitX=0;exitY=1;exitDx=0;exitDy=0;entryX=0.5;entryY=0;entryDx=0;entryDy=0;" edge="1" parent="WIyWlLk6GJQsqaUBKTNV-1" source="HlbBvnIb4zkgzPctbdRk-235" target="HlbBvnIb4zkgzPctbdRk-184">
          <mxGeometry relative="1" as="geometry">
            <mxPoint x="3" y="2275" as="sourcePoint" />
            <mxPoint x="-325" y="1895" as="targetPoint" />
          </mxGeometry>
        </mxCell>
        <mxCell id="HlbBvnIb4zkgzPctbdRk-241" value="Yes" style="edgeLabel;html=1;align=center;verticalAlign=middle;resizable=0;points=[];" vertex="1" connectable="0" parent="HlbBvnIb4zkgzPctbdRk-240">
          <mxGeometry x="0.1" y="-1" relative="1" as="geometry">
            <mxPoint as="offset" />
          </mxGeometry>
        </mxCell>
        <mxCell id="HlbBvnIb4zkgzPctbdRk-243" value="" style="endArrow=classic;html=1;rounded=0;exitX=1;exitY=1;exitDx=0;exitDy=0;entryX=0.5;entryY=0;entryDx=0;entryDy=0;" edge="1" parent="WIyWlLk6GJQsqaUBKTNV-1" source="HlbBvnIb4zkgzPctbdRk-235" target="HlbBvnIb4zkgzPctbdRk-175">
          <mxGeometry relative="1" as="geometry">
            <mxPoint x="-217" y="1845" as="sourcePoint" />
            <mxPoint x="-295" y="1910" as="targetPoint" />
          </mxGeometry>
        </mxCell>
        <mxCell id="HlbBvnIb4zkgzPctbdRk-245" value="No" style="edgeLabel;html=1;align=center;verticalAlign=middle;resizable=0;points=[];" vertex="1" connectable="0" parent="HlbBvnIb4zkgzPctbdRk-243">
          <mxGeometry x="0.1706" y="1" relative="1" as="geometry">
            <mxPoint as="offset" />
          </mxGeometry>
        </mxCell>
        <mxCell id="HlbBvnIb4zkgzPctbdRk-248" value="" style="rhombus;whiteSpace=wrap;html=1;fillColor=none;" vertex="1" parent="WIyWlLk6GJQsqaUBKTNV-1">
          <mxGeometry x="-342.5" y="2130" width="70" height="60" as="geometry" />
        </mxCell>
        <mxCell id="HlbBvnIb4zkgzPctbdRk-249" value="" style="edgeStyle=orthogonalEdgeStyle;rounded=0;orthogonalLoop=1;jettySize=auto;html=1;endArrow=oval;endFill=1;fillColor=none;" edge="1" parent="WIyWlLk6GJQsqaUBKTNV-1" source="HlbBvnIb4zkgzPctbdRk-250">
          <mxGeometry relative="1" as="geometry">
            <mxPoint x="-320" y="2145" as="targetPoint" />
          </mxGeometry>
        </mxCell>
        <mxCell id="HlbBvnIb4zkgzPctbdRk-250" value="&lt;span style=&quot;text-wrap-mode: nowrap; font-size: 14px;&quot;&gt;&amp;lt;&amp;lt;DECISION INPUT&amp;gt;&amp;gt;&lt;/span&gt;&lt;br&gt;&lt;div style=&quot;text-wrap-mode: nowrap;&quot;&gt;&lt;font size=&quot;3&quot;&gt;isSentence(Message)&lt;/font&gt;&lt;/div&gt;" style="shape=note;whiteSpace=wrap;html=1;backgroundOutline=1;darkOpacity=0.05;fillColor=none;" vertex="1" parent="WIyWlLk6GJQsqaUBKTNV-1">
          <mxGeometry x="-700" y="2095" width="330" height="70" as="geometry" />
        </mxCell>
        <mxCell id="HlbBvnIb4zkgzPctbdRk-251" value="" style="endArrow=classic;html=1;rounded=0;exitX=0;exitY=1;exitDx=0;exitDy=0;entryX=0.5;entryY=0;entryDx=0;entryDy=0;" edge="1" parent="WIyWlLk6GJQsqaUBKTNV-1" source="HlbBvnIb4zkgzPctbdRk-248">
          <mxGeometry relative="1" as="geometry">
            <mxPoint x="-94.5" y="2615" as="sourcePoint" />
            <mxPoint x="-402.5" y="2240" as="targetPoint" />
          </mxGeometry>
        </mxCell>
        <mxCell id="HlbBvnIb4zkgzPctbdRk-252" value="No" style="edgeLabel;html=1;align=center;verticalAlign=middle;resizable=0;points=[];" vertex="1" connectable="0" parent="HlbBvnIb4zkgzPctbdRk-251">
          <mxGeometry x="0.1" y="-1" relative="1" as="geometry">
            <mxPoint as="offset" />
          </mxGeometry>
        </mxCell>
        <mxCell id="HlbBvnIb4zkgzPctbdRk-253" value="" style="endArrow=classic;html=1;rounded=0;exitX=1;exitY=1;exitDx=0;exitDy=0;entryX=0.5;entryY=0;entryDx=0;entryDy=0;" edge="1" parent="WIyWlLk6GJQsqaUBKTNV-1" source="HlbBvnIb4zkgzPctbdRk-248">
          <mxGeometry relative="1" as="geometry">
            <mxPoint x="-314.5" y="2185" as="sourcePoint" />
            <mxPoint x="-212.5" y="2240" as="targetPoint" />
          </mxGeometry>
        </mxCell>
        <mxCell id="HlbBvnIb4zkgzPctbdRk-254" value="Yes" style="edgeLabel;html=1;align=center;verticalAlign=middle;resizable=0;points=[];" vertex="1" connectable="0" parent="HlbBvnIb4zkgzPctbdRk-253">
          <mxGeometry x="0.1706" y="1" relative="1" as="geometry">
            <mxPoint as="offset" />
          </mxGeometry>
        </mxCell>
        <mxCell id="HlbBvnIb4zkgzPctbdRk-265" value="" style="rhombus;whiteSpace=wrap;html=1;fillColor=none;" vertex="1" parent="WIyWlLk6GJQsqaUBKTNV-1">
          <mxGeometry x="-202.5" y="2530" width="70" height="60" as="geometry" />
        </mxCell>
        <mxCell id="HlbBvnIb4zkgzPctbdRk-266" value="" style="edgeStyle=orthogonalEdgeStyle;rounded=0;orthogonalLoop=1;jettySize=auto;html=1;endArrow=oval;endFill=1;fillColor=none;" edge="1" parent="WIyWlLk6GJQsqaUBKTNV-1" source="HlbBvnIb4zkgzPctbdRk-267">
          <mxGeometry relative="1" as="geometry">
            <mxPoint x="-180" y="2545" as="targetPoint" />
          </mxGeometry>
        </mxCell>
        <mxCell id="HlbBvnIb4zkgzPctbdRk-267" value="&lt;span style=&quot;text-wrap-mode: nowrap; font-size: 14px;&quot;&gt;&amp;lt;&amp;lt;DECISION INPUT&amp;gt;&amp;gt;&lt;/span&gt;&lt;br&gt;&lt;div style=&quot;text-wrap-mode: nowrap;&quot;&gt;&lt;font size=&quot;3&quot;&gt;isFirstInteraction(Sentence)&lt;/font&gt;&lt;/div&gt;" style="shape=note;whiteSpace=wrap;html=1;backgroundOutline=1;darkOpacity=0.05;fillColor=none;" vertex="1" parent="WIyWlLk6GJQsqaUBKTNV-1">
          <mxGeometry x="-560" y="2495" width="330" height="70" as="geometry" />
        </mxCell>
        <mxCell id="HlbBvnIb4zkgzPctbdRk-268" value="" style="endArrow=classic;html=1;rounded=0;exitX=0;exitY=1;exitDx=0;exitDy=0;entryX=1;entryY=0;entryDx=0;entryDy=0;" edge="1" parent="WIyWlLk6GJQsqaUBKTNV-1" source="HlbBvnIb4zkgzPctbdRk-265" target="HlbBvnIb4zkgzPctbdRk-272">
          <mxGeometry relative="1" as="geometry">
            <mxPoint x="45.5" y="3015" as="sourcePoint" />
            <mxPoint x="-262.5" y="2640" as="targetPoint" />
          </mxGeometry>
        </mxCell>
        <mxCell id="HlbBvnIb4zkgzPctbdRk-269" value="Yes" style="edgeLabel;html=1;align=center;verticalAlign=middle;resizable=0;points=[];" vertex="1" connectable="0" parent="HlbBvnIb4zkgzPctbdRk-268">
          <mxGeometry x="0.1" y="-1" relative="1" as="geometry">
            <mxPoint as="offset" />
          </mxGeometry>
        </mxCell>
        <mxCell id="HlbBvnIb4zkgzPctbdRk-270" value="" style="endArrow=classic;html=1;rounded=0;exitX=1;exitY=1;exitDx=0;exitDy=0;" edge="1" parent="WIyWlLk6GJQsqaUBKTNV-1" source="HlbBvnIb4zkgzPctbdRk-265" target="HlbBvnIb4zkgzPctbdRk-220">
          <mxGeometry relative="1" as="geometry">
            <mxPoint x="-174.5" y="2585" as="sourcePoint" />
            <mxPoint x="-72.5" y="2640" as="targetPoint" />
          </mxGeometry>
        </mxCell>
        <mxCell id="HlbBvnIb4zkgzPctbdRk-271" value="Verbal Command" style="edgeLabel;html=1;align=center;verticalAlign=middle;resizable=0;points=[];" vertex="1" connectable="0" parent="HlbBvnIb4zkgzPctbdRk-270">
          <mxGeometry x="0.1706" y="1" relative="1" as="geometry">
            <mxPoint as="offset" />
          </mxGeometry>
        </mxCell>
        <mxCell id="HlbBvnIb4zkgzPctbdRk-272" value="" style="rhombus;whiteSpace=wrap;html=1;fillColor=none;" vertex="1" parent="WIyWlLk6GJQsqaUBKTNV-1">
          <mxGeometry x="-320" y="2655" width="70" height="60" as="geometry" />
        </mxCell>
        <mxCell id="HlbBvnIb4zkgzPctbdRk-273" value="" style="edgeStyle=orthogonalEdgeStyle;rounded=0;orthogonalLoop=1;jettySize=auto;html=1;endArrow=oval;endFill=1;fillColor=none;" edge="1" parent="WIyWlLk6GJQsqaUBKTNV-1" source="HlbBvnIb4zkgzPctbdRk-274">
          <mxGeometry relative="1" as="geometry">
            <mxPoint x="-297.5" y="2670" as="targetPoint" />
          </mxGeometry>
        </mxCell>
        <mxCell id="HlbBvnIb4zkgzPctbdRk-274" value="&lt;span style=&quot;text-wrap-mode: nowrap; font-size: 14px;&quot;&gt;&amp;lt;&amp;lt;DECISION INPUT&amp;gt;&amp;gt;&lt;/span&gt;&lt;br&gt;&lt;div style=&quot;text-wrap-mode: nowrap;&quot;&gt;&lt;font size=&quot;3&quot;&gt;ingredientsShown(Sentence)&lt;/font&gt;&lt;/div&gt;" style="shape=note;whiteSpace=wrap;html=1;backgroundOutline=1;darkOpacity=0.05;fillColor=none;" vertex="1" parent="WIyWlLk6GJQsqaUBKTNV-1">
          <mxGeometry x="-690" y="2600" width="330" height="70" as="geometry" />
        </mxCell>
        <mxCell id="HlbBvnIb4zkgzPctbdRk-275" value="" style="endArrow=classic;html=1;rounded=0;exitX=0;exitY=1;exitDx=0;exitDy=0;entryX=0.5;entryY=0;entryDx=0;entryDy=0;" edge="1" parent="WIyWlLk6GJQsqaUBKTNV-1" source="HlbBvnIb4zkgzPctbdRk-272">
          <mxGeometry relative="1" as="geometry">
            <mxPoint x="-72" y="3140" as="sourcePoint" />
            <mxPoint x="-380" y="2765" as="targetPoint" />
          </mxGeometry>
        </mxCell>
        <mxCell id="HlbBvnIb4zkgzPctbdRk-276" value="No" style="edgeLabel;html=1;align=center;verticalAlign=middle;resizable=0;points=[];" vertex="1" connectable="0" parent="HlbBvnIb4zkgzPctbdRk-275">
          <mxGeometry x="0.1" y="-1" relative="1" as="geometry">
            <mxPoint as="offset" />
          </mxGeometry>
        </mxCell>
        <mxCell id="HlbBvnIb4zkgzPctbdRk-277" value="" style="endArrow=classic;html=1;rounded=0;exitX=1;exitY=1;exitDx=0;exitDy=0;entryX=0;entryY=0;entryDx=97.78500000000001;entryDy=0;entryPerimeter=0;" edge="1" parent="WIyWlLk6GJQsqaUBKTNV-1" source="HlbBvnIb4zkgzPctbdRk-272" target="HlbBvnIb4zkgzPctbdRk-147">
          <mxGeometry relative="1" as="geometry">
            <mxPoint x="-292" y="2710" as="sourcePoint" />
            <mxPoint x="-190" y="2765" as="targetPoint" />
          </mxGeometry>
        </mxCell>
        <mxCell id="HlbBvnIb4zkgzPctbdRk-278" value="Yes" style="edgeLabel;html=1;align=center;verticalAlign=middle;resizable=0;points=[];" vertex="1" connectable="0" parent="HlbBvnIb4zkgzPctbdRk-277">
          <mxGeometry x="0.1706" y="1" relative="1" as="geometry">
            <mxPoint as="offset" />
          </mxGeometry>
        </mxCell>
        <mxCell id="HlbBvnIb4zkgzPctbdRk-279" value="" style="rhombus;whiteSpace=wrap;html=1;fillColor=none;" vertex="1" parent="WIyWlLk6GJQsqaUBKTNV-1">
          <mxGeometry x="-421.25" y="2762.5" width="70" height="60" as="geometry" />
        </mxCell>
        <mxCell id="HlbBvnIb4zkgzPctbdRk-280" value="" style="edgeStyle=orthogonalEdgeStyle;rounded=0;orthogonalLoop=1;jettySize=auto;html=1;endArrow=oval;endFill=1;fillColor=none;" edge="1" parent="WIyWlLk6GJQsqaUBKTNV-1" source="HlbBvnIb4zkgzPctbdRk-281">
          <mxGeometry relative="1" as="geometry">
            <mxPoint x="-398.75" y="2777.5" as="targetPoint" />
          </mxGeometry>
        </mxCell>
        <mxCell id="HlbBvnIb4zkgzPctbdRk-281" value="&lt;span style=&quot;text-wrap-mode: nowrap; font-size: 14px;&quot;&gt;&amp;lt;&amp;lt;DECISION INPUT&amp;gt;&amp;gt;&lt;/span&gt;&lt;br&gt;&lt;div style=&quot;text-wrap-mode: nowrap;&quot;&gt;&lt;font size=&quot;3&quot;&gt;isRecipe(Sentence)&lt;/font&gt;&lt;/div&gt;" style="shape=note;whiteSpace=wrap;html=1;backgroundOutline=1;darkOpacity=0.05;fillColor=none;" vertex="1" parent="WIyWlLk6GJQsqaUBKTNV-1">
          <mxGeometry x="-775" y="2705" width="330" height="70" as="geometry" />
        </mxCell>
        <mxCell id="HlbBvnIb4zkgzPctbdRk-282" value="" style="endArrow=classic;html=1;rounded=0;exitX=0;exitY=1;exitDx=0;exitDy=0;entryX=0;entryY=0;entryDx=0;entryDy=0;" edge="1" parent="WIyWlLk6GJQsqaUBKTNV-1" source="HlbBvnIb4zkgzPctbdRk-279" target="HlbBvnIb4zkgzPctbdRk-229">
          <mxGeometry relative="1" as="geometry">
            <mxPoint x="-173.25" y="3247.5" as="sourcePoint" />
            <mxPoint x="-481.25" y="2872.5" as="targetPoint" />
          </mxGeometry>
        </mxCell>
        <mxCell id="HlbBvnIb4zkgzPctbdRk-283" value="No" style="edgeLabel;html=1;align=center;verticalAlign=middle;resizable=0;points=[];" vertex="1" connectable="0" parent="HlbBvnIb4zkgzPctbdRk-282">
          <mxGeometry x="0.1" y="-1" relative="1" as="geometry">
            <mxPoint as="offset" />
          </mxGeometry>
        </mxCell>
        <mxCell id="HlbBvnIb4zkgzPctbdRk-284" value="" style="endArrow=classic;html=1;rounded=0;exitX=1;exitY=1;exitDx=0;exitDy=0;entryX=0.5;entryY=0;entryDx=0;entryDy=0;" edge="1" parent="WIyWlLk6GJQsqaUBKTNV-1" source="HlbBvnIb4zkgzPctbdRk-279" target="HlbBvnIb4zkgzPctbdRk-196">
          <mxGeometry relative="1" as="geometry">
            <mxPoint x="-393.25" y="2817.5" as="sourcePoint" />
            <mxPoint x="-260" y="2960" as="targetPoint" />
          </mxGeometry>
        </mxCell>
        <mxCell id="HlbBvnIb4zkgzPctbdRk-285" value="Yes" style="edgeLabel;html=1;align=center;verticalAlign=middle;resizable=0;points=[];" vertex="1" connectable="0" parent="HlbBvnIb4zkgzPctbdRk-284">
          <mxGeometry x="0.1706" y="1" relative="1" as="geometry">
            <mxPoint x="-2" y="-4" as="offset" />
          </mxGeometry>
        </mxCell>
        <mxCell id="HlbBvnIb4zkgzPctbdRk-288" value="" style="rhombus;whiteSpace=wrap;html=1;fillColor=none;" vertex="1" parent="WIyWlLk6GJQsqaUBKTNV-1">
          <mxGeometry x="-401" y="3756" width="70" height="60" as="geometry" />
        </mxCell>
        <mxCell id="HlbBvnIb4zkgzPctbdRk-289" value="" style="edgeStyle=orthogonalEdgeStyle;rounded=0;orthogonalLoop=1;jettySize=auto;html=1;endArrow=oval;endFill=1;fillColor=none;" edge="1" parent="WIyWlLk6GJQsqaUBKTNV-1" source="HlbBvnIb4zkgzPctbdRk-290">
          <mxGeometry relative="1" as="geometry">
            <mxPoint x="-378.5" y="3771" as="targetPoint" />
          </mxGeometry>
        </mxCell>
        <mxCell id="HlbBvnIb4zkgzPctbdRk-290" value="&lt;span style=&quot;text-wrap-mode: nowrap; font-size: 14px;&quot;&gt;&amp;lt;&amp;lt;DECISION INPUT&amp;gt;&amp;gt;&lt;/span&gt;&lt;br&gt;&lt;div style=&quot;text-wrap-mode: nowrap;&quot;&gt;&lt;font size=&quot;3&quot;&gt;proposesFound&lt;/font&gt;&lt;/div&gt;" style="shape=note;whiteSpace=wrap;html=1;backgroundOutline=1;darkOpacity=0.05;fillColor=none;" vertex="1" parent="WIyWlLk6GJQsqaUBKTNV-1">
          <mxGeometry x="-758.5" y="3721" width="330" height="70" as="geometry" />
        </mxCell>
        <mxCell id="HlbBvnIb4zkgzPctbdRk-291" value="" style="endArrow=classic;html=1;rounded=0;exitX=0;exitY=1;exitDx=0;exitDy=0;entryX=0;entryY=0;entryDx=195.57;entryDy=0;entryPerimeter=0;" edge="1" parent="WIyWlLk6GJQsqaUBKTNV-1" source="HlbBvnIb4zkgzPctbdRk-288" target="HlbBvnIb4zkgzPctbdRk-153">
          <mxGeometry relative="1" as="geometry">
            <mxPoint x="-153" y="4241" as="sourcePoint" />
            <mxPoint x="-461" y="3866" as="targetPoint" />
          </mxGeometry>
        </mxCell>
        <mxCell id="HlbBvnIb4zkgzPctbdRk-292" value="Yes" style="edgeLabel;html=1;align=center;verticalAlign=middle;resizable=0;points=[];" vertex="1" connectable="0" parent="HlbBvnIb4zkgzPctbdRk-291">
          <mxGeometry x="0.1" y="-1" relative="1" as="geometry">
            <mxPoint as="offset" />
          </mxGeometry>
        </mxCell>
        <mxCell id="HlbBvnIb4zkgzPctbdRk-293" value="" style="endArrow=classic;html=1;rounded=0;exitX=1;exitY=1;exitDx=0;exitDy=0;entryX=0;entryY=0;entryDx=97.785;entryDy=0;entryPerimeter=0;" edge="1" parent="WIyWlLk6GJQsqaUBKTNV-1" source="HlbBvnIb4zkgzPctbdRk-288" target="HlbBvnIb4zkgzPctbdRk-150">
          <mxGeometry relative="1" as="geometry">
            <mxPoint x="-373" y="3811" as="sourcePoint" />
            <mxPoint x="-271" y="3866" as="targetPoint" />
          </mxGeometry>
        </mxCell>
        <mxCell id="HlbBvnIb4zkgzPctbdRk-294" value="No" style="edgeLabel;html=1;align=center;verticalAlign=middle;resizable=0;points=[];" vertex="1" connectable="0" parent="HlbBvnIb4zkgzPctbdRk-293">
          <mxGeometry x="0.1706" y="1" relative="1" as="geometry">
            <mxPoint as="offset" />
          </mxGeometry>
        </mxCell>
        <mxCell id="HlbBvnIb4zkgzPctbdRk-295" value="" style="rhombus;whiteSpace=wrap;html=1;fillColor=none;" vertex="1" parent="WIyWlLk6GJQsqaUBKTNV-1">
          <mxGeometry x="-378.5" y="3415" width="70" height="60" as="geometry" />
        </mxCell>
        <mxCell id="HlbBvnIb4zkgzPctbdRk-296" value="" style="edgeStyle=orthogonalEdgeStyle;rounded=0;orthogonalLoop=1;jettySize=auto;html=1;endArrow=oval;endFill=1;fillColor=none;" edge="1" parent="WIyWlLk6GJQsqaUBKTNV-1" source="HlbBvnIb4zkgzPctbdRk-297">
          <mxGeometry relative="1" as="geometry">
            <mxPoint x="-356" y="3430" as="targetPoint" />
          </mxGeometry>
        </mxCell>
        <mxCell id="HlbBvnIb4zkgzPctbdRk-297" value="&lt;span style=&quot;text-wrap-mode: nowrap; font-size: 14px;&quot;&gt;&amp;lt;&amp;lt;DECISION INPUT&amp;gt;&amp;gt;&lt;/span&gt;&lt;br&gt;&lt;div style=&quot;text-wrap-mode: nowrap;&quot;&gt;&lt;font size=&quot;3&quot;&gt;isConnected(Wi-Fi)&lt;/font&gt;&lt;/div&gt;" style="shape=note;whiteSpace=wrap;html=1;backgroundOutline=1;darkOpacity=0.05;fillColor=none;" vertex="1" parent="WIyWlLk6GJQsqaUBKTNV-1">
          <mxGeometry x="-736" y="3380" width="330" height="70" as="geometry" />
        </mxCell>
        <mxCell id="HlbBvnIb4zkgzPctbdRk-298" value="" style="endArrow=classic;html=1;rounded=0;exitX=0;exitY=1;exitDx=0;exitDy=0;entryX=0;entryY=0;entryDx=195.57;entryDy=0;entryPerimeter=0;" edge="1" parent="WIyWlLk6GJQsqaUBKTNV-1" source="HlbBvnIb4zkgzPctbdRk-295" target="HlbBvnIb4zkgzPctbdRk-156">
          <mxGeometry relative="1" as="geometry">
            <mxPoint x="-130.5" y="3900" as="sourcePoint" />
            <mxPoint x="-438.5" y="3525" as="targetPoint" />
          </mxGeometry>
        </mxCell>
        <mxCell id="HlbBvnIb4zkgzPctbdRk-299" value="No" style="edgeLabel;html=1;align=center;verticalAlign=middle;resizable=0;points=[];" vertex="1" connectable="0" parent="HlbBvnIb4zkgzPctbdRk-298">
          <mxGeometry x="0.1" y="-1" relative="1" as="geometry">
            <mxPoint as="offset" />
          </mxGeometry>
        </mxCell>
        <mxCell id="HlbBvnIb4zkgzPctbdRk-300" value="" style="endArrow=classic;html=1;rounded=0;exitX=1;exitY=1;exitDx=0;exitDy=0;entryX=0;entryY=0;entryDx=0;entryDy=0;" edge="1" parent="WIyWlLk6GJQsqaUBKTNV-1" source="HlbBvnIb4zkgzPctbdRk-295" target="HlbBvnIb4zkgzPctbdRk-302">
          <mxGeometry relative="1" as="geometry">
            <mxPoint x="-350.5" y="3470" as="sourcePoint" />
            <mxPoint x="-248.5" y="3525" as="targetPoint" />
          </mxGeometry>
        </mxCell>
        <mxCell id="HlbBvnIb4zkgzPctbdRk-301" value="Yes" style="edgeLabel;html=1;align=center;verticalAlign=middle;resizable=0;points=[];" vertex="1" connectable="0" parent="HlbBvnIb4zkgzPctbdRk-300">
          <mxGeometry x="0.1706" y="1" relative="1" as="geometry">
            <mxPoint as="offset" />
          </mxGeometry>
        </mxCell>
        <mxCell id="HlbBvnIb4zkgzPctbdRk-302" value="" style="rhombus;whiteSpace=wrap;html=1;fillColor=none;" vertex="1" parent="WIyWlLk6GJQsqaUBKTNV-1">
          <mxGeometry x="-234.75" y="3531" width="70" height="60" as="geometry" />
        </mxCell>
        <mxCell id="HlbBvnIb4zkgzPctbdRk-303" value="" style="edgeStyle=orthogonalEdgeStyle;rounded=0;orthogonalLoop=1;jettySize=auto;html=1;endArrow=oval;endFill=1;fillColor=none;entryX=1;entryY=0;entryDx=0;entryDy=0;" edge="1" parent="WIyWlLk6GJQsqaUBKTNV-1" source="HlbBvnIb4zkgzPctbdRk-304" target="HlbBvnIb4zkgzPctbdRk-302">
          <mxGeometry relative="1" as="geometry">
            <mxPoint x="-212.25" y="3546" as="targetPoint" />
          </mxGeometry>
        </mxCell>
        <mxCell id="HlbBvnIb4zkgzPctbdRk-304" value="&lt;span style=&quot;text-wrap-mode: nowrap; font-size: 14px;&quot;&gt;&amp;lt;&amp;lt;DECISION INPUT&amp;gt;&amp;gt;&lt;/span&gt;&lt;br&gt;&lt;div style=&quot;text-wrap-mode: nowrap;&quot;&gt;&lt;font size=&quot;3&quot;&gt;isRecipeAsked&lt;/font&gt;&lt;/div&gt;" style="shape=note;whiteSpace=wrap;html=1;backgroundOutline=1;darkOpacity=0.05;fillColor=none;" vertex="1" parent="WIyWlLk6GJQsqaUBKTNV-1">
          <mxGeometry x="-121.5" y="3461" width="330" height="70" as="geometry" />
        </mxCell>
        <mxCell id="HlbBvnIb4zkgzPctbdRk-305" value="" style="endArrow=classic;html=1;rounded=0;exitX=0;exitY=1;exitDx=0;exitDy=0;entryX=0.75;entryY=0;entryDx=0;entryDy=0;" edge="1" parent="WIyWlLk6GJQsqaUBKTNV-1" source="HlbBvnIb4zkgzPctbdRk-302" target="HlbBvnIb4zkgzPctbdRk-191">
          <mxGeometry relative="1" as="geometry">
            <mxPoint x="13.25" y="4016" as="sourcePoint" />
            <mxPoint x="-294.75" y="3641" as="targetPoint" />
          </mxGeometry>
        </mxCell>
        <mxCell id="HlbBvnIb4zkgzPctbdRk-306" value="No" style="edgeLabel;html=1;align=center;verticalAlign=middle;resizable=0;points=[];" vertex="1" connectable="0" parent="HlbBvnIb4zkgzPctbdRk-305">
          <mxGeometry x="0.1" y="-1" relative="1" as="geometry">
            <mxPoint as="offset" />
          </mxGeometry>
        </mxCell>
        <mxCell id="HlbBvnIb4zkgzPctbdRk-307" value="" style="endArrow=classic;html=1;rounded=0;exitX=1;exitY=1;exitDx=0;exitDy=0;entryX=0.25;entryY=0;entryDx=0;entryDy=0;" edge="1" parent="WIyWlLk6GJQsqaUBKTNV-1" source="HlbBvnIb4zkgzPctbdRk-302" target="HlbBvnIb4zkgzPctbdRk-193">
          <mxGeometry relative="1" as="geometry">
            <mxPoint x="-206.75" y="3586" as="sourcePoint" />
            <mxPoint x="-104.75" y="3641" as="targetPoint" />
          </mxGeometry>
        </mxCell>
        <mxCell id="HlbBvnIb4zkgzPctbdRk-308" value="Yes" style="edgeLabel;html=1;align=center;verticalAlign=middle;resizable=0;points=[];" vertex="1" connectable="0" parent="HlbBvnIb4zkgzPctbdRk-307">
          <mxGeometry x="0.1706" y="1" relative="1" as="geometry">
            <mxPoint as="offset" />
          </mxGeometry>
        </mxCell>
        <mxCell id="HlbBvnIb4zkgzPctbdRk-309" value="" style="rhombus;whiteSpace=wrap;html=1;fillColor=none;" vertex="1" parent="WIyWlLk6GJQsqaUBKTNV-1">
          <mxGeometry x="112.5" y="2990" width="70" height="60" as="geometry" />
        </mxCell>
        <mxCell id="HlbBvnIb4zkgzPctbdRk-310" value="" style="edgeStyle=orthogonalEdgeStyle;rounded=0;orthogonalLoop=1;jettySize=auto;html=1;endArrow=oval;endFill=1;fillColor=none;entryX=1;entryY=0;entryDx=0;entryDy=0;" edge="1" parent="WIyWlLk6GJQsqaUBKTNV-1" source="HlbBvnIb4zkgzPctbdRk-311" target="HlbBvnIb4zkgzPctbdRk-309">
          <mxGeometry relative="1" as="geometry">
            <mxPoint x="135" y="3005" as="targetPoint" />
          </mxGeometry>
        </mxCell>
        <mxCell id="HlbBvnIb4zkgzPctbdRk-311" value="&lt;span style=&quot;text-wrap-mode: nowrap; font-size: 14px;&quot;&gt;&amp;lt;&amp;lt;DECISION INPUT&amp;gt;&amp;gt;&lt;/span&gt;&lt;br&gt;&lt;div style=&quot;text-wrap-mode: nowrap;&quot;&gt;&lt;font size=&quot;3&quot;&gt;isValid(Command)&lt;/font&gt;&lt;/div&gt;" style="shape=note;whiteSpace=wrap;html=1;backgroundOutline=1;darkOpacity=0.05;fillColor=none;" vertex="1" parent="WIyWlLk6GJQsqaUBKTNV-1">
          <mxGeometry x="217.67000000000007" y="2940" width="330" height="70" as="geometry" />
        </mxCell>
        <mxCell id="HlbBvnIb4zkgzPctbdRk-312" value="" style="endArrow=classic;html=1;rounded=0;exitX=0;exitY=1;exitDx=0;exitDy=0;entryX=0.5;entryY=0;entryDx=0;entryDy=0;" edge="1" parent="WIyWlLk6GJQsqaUBKTNV-1" source="HlbBvnIb4zkgzPctbdRk-309">
          <mxGeometry relative="1" as="geometry">
            <mxPoint x="360.5" y="3475" as="sourcePoint" />
            <mxPoint x="52.5" y="3100" as="targetPoint" />
          </mxGeometry>
        </mxCell>
        <mxCell id="HlbBvnIb4zkgzPctbdRk-313" value="Yes" style="edgeLabel;html=1;align=center;verticalAlign=middle;resizable=0;points=[];" vertex="1" connectable="0" parent="HlbBvnIb4zkgzPctbdRk-312">
          <mxGeometry x="0.1" y="-1" relative="1" as="geometry">
            <mxPoint as="offset" />
          </mxGeometry>
        </mxCell>
        <mxCell id="HlbBvnIb4zkgzPctbdRk-314" value="" style="endArrow=classic;html=1;rounded=0;exitX=1;exitY=1;exitDx=0;exitDy=0;entryX=0.157;entryY=0.053;entryDx=0;entryDy=0;entryPerimeter=0;" edge="1" parent="WIyWlLk6GJQsqaUBKTNV-1" source="HlbBvnIb4zkgzPctbdRk-309" target="HlbBvnIb4zkgzPctbdRk-174">
          <mxGeometry relative="1" as="geometry">
            <mxPoint x="140.5" y="3045" as="sourcePoint" />
            <mxPoint x="242.5" y="3100" as="targetPoint" />
          </mxGeometry>
        </mxCell>
        <mxCell id="HlbBvnIb4zkgzPctbdRk-315" value="No" style="edgeLabel;html=1;align=center;verticalAlign=middle;resizable=0;points=[];" vertex="1" connectable="0" parent="HlbBvnIb4zkgzPctbdRk-314">
          <mxGeometry x="0.1706" y="1" relative="1" as="geometry">
            <mxPoint x="-13" y="-5" as="offset" />
          </mxGeometry>
        </mxCell>
        <mxCell id="HlbBvnIb4zkgzPctbdRk-323" value="" style="rhombus;whiteSpace=wrap;html=1;fillColor=none;" vertex="1" parent="WIyWlLk6GJQsqaUBKTNV-1">
          <mxGeometry x="-31" y="3756" width="70" height="60" as="geometry" />
        </mxCell>
        <mxCell id="HlbBvnIb4zkgzPctbdRk-324" value="" style="edgeStyle=orthogonalEdgeStyle;rounded=0;orthogonalLoop=1;jettySize=auto;html=1;endArrow=oval;endFill=1;fillColor=none;entryX=1;entryY=0;entryDx=0;entryDy=0;" edge="1" parent="WIyWlLk6GJQsqaUBKTNV-1" source="HlbBvnIb4zkgzPctbdRk-325" target="HlbBvnIb4zkgzPctbdRk-323">
          <mxGeometry relative="1" as="geometry">
            <mxPoint x="-8.5" y="3771" as="targetPoint" />
          </mxGeometry>
        </mxCell>
        <mxCell id="HlbBvnIb4zkgzPctbdRk-325" value="&lt;span style=&quot;text-wrap-mode: nowrap; font-size: 14px;&quot;&gt;&amp;lt;&amp;lt;DECISION INPUT&amp;gt;&amp;gt;&lt;/span&gt;&lt;br&gt;&lt;div style=&quot;text-wrap-mode: nowrap;&quot;&gt;&lt;font size=&quot;3&quot;&gt;recipeFound&lt;/font&gt;&lt;/div&gt;" style="shape=note;whiteSpace=wrap;html=1;backgroundOutline=1;darkOpacity=0.05;fillColor=none;" vertex="1" parent="WIyWlLk6GJQsqaUBKTNV-1">
          <mxGeometry x="68.5" y="3721" width="330" height="70" as="geometry" />
        </mxCell>
        <mxCell id="HlbBvnIb4zkgzPctbdRk-326" value="" style="endArrow=classic;html=1;rounded=0;exitX=0;exitY=1;exitDx=0;exitDy=0;entryX=0.627;entryY=0.049;entryDx=0;entryDy=0;entryPerimeter=0;" edge="1" parent="WIyWlLk6GJQsqaUBKTNV-1" source="HlbBvnIb4zkgzPctbdRk-323" target="HlbBvnIb4zkgzPctbdRk-159">
          <mxGeometry relative="1" as="geometry">
            <mxPoint x="217" y="4241" as="sourcePoint" />
            <mxPoint x="-91" y="3866" as="targetPoint" />
          </mxGeometry>
        </mxCell>
        <mxCell id="HlbBvnIb4zkgzPctbdRk-327" value="No" style="edgeLabel;html=1;align=center;verticalAlign=middle;resizable=0;points=[];" vertex="1" connectable="0" parent="HlbBvnIb4zkgzPctbdRk-326">
          <mxGeometry x="0.1" y="-1" relative="1" as="geometry">
            <mxPoint as="offset" />
          </mxGeometry>
        </mxCell>
        <mxCell id="HlbBvnIb4zkgzPctbdRk-328" value="" style="endArrow=classic;html=1;rounded=0;exitX=1;exitY=1;exitDx=0;exitDy=0;" edge="1" parent="WIyWlLk6GJQsqaUBKTNV-1" source="HlbBvnIb4zkgzPctbdRk-323">
          <mxGeometry relative="1" as="geometry">
            <mxPoint x="-3" y="3811" as="sourcePoint" />
            <mxPoint x="121.5" y="3871" as="targetPoint" />
          </mxGeometry>
        </mxCell>
        <mxCell id="HlbBvnIb4zkgzPctbdRk-329" value="Yes" style="edgeLabel;html=1;align=center;verticalAlign=middle;resizable=0;points=[];" vertex="1" connectable="0" parent="HlbBvnIb4zkgzPctbdRk-328">
          <mxGeometry x="0.1706" y="1" relative="1" as="geometry">
            <mxPoint as="offset" />
          </mxGeometry>
        </mxCell>
        <mxCell id="HlbBvnIb4zkgzPctbdRk-332" value="&lt;font style=&quot;font-size: 36px;&quot;&gt;HUMAN COMMAND MONITORING AND CONFLICT RESOLUTION&lt;/font&gt;" style="text;html=1;align=center;verticalAlign=middle;whiteSpace=wrap;rounded=0;" vertex="1" parent="WIyWlLk6GJQsqaUBKTNV-1">
          <mxGeometry x="-770" y="1077.5" width="1220" height="240" as="geometry" />
        </mxCell>
      </root>
    </mxGraphModel>
  </diagram>
</mxfile>
